<svg width="28" height="28" viewBox="0 0 28 28" fill="none" xmlns="http://www.w3.org/2000/svg">
<path fill-rule="evenodd" clip-rule="evenodd" d="M13.0572 1.05715C13.5779 0.536451 14.4221 0.536451 14.9428 1.05715L26.9428 13.0572C27.4635 13.5778 27.4635 14.4221 26.9428 14.9428C26.4221 15.4635 25.5779 15.4635 25.0572 14.9428L24.6667 14.5522V23.3333C24.6667 25.5424 22.8758 27.3333 20.6667 27.3333H7.33333C5.1242 27.3333 3.33333 25.5424 3.33333 23.3333V14.5522L2.94281 14.9428C2.42211 15.4635 1.57789 15.4635 1.05719 14.9428C0.536493 14.4221 0.536493 13.5778 1.05719 13.0572L3.72338 10.391C3.7237 10.3906 3.72402 10.3903 3.72433 10.39L13.0572 1.05715ZM6 11.8856V23.3333C6 24.0697 6.59696 24.6666 7.33333 24.6666H20.6667C21.403 24.6666 22 24.0697 22 23.3333V11.8856L14 3.88558L6 11.8856Z" fill="#F1F1F1"/>
</svg>
