<svg width="164" height="200" viewBox="0 0 164 200" fill="none" xmlns="http://www.w3.org/2000/svg">
<path d="M8.0984 112.662C5.40841 117.791 5.9122 124.514 9.35442 129.14C10.1756 130.232 14.8437 134.211 46.5869 160.847C86.7076 194.512 84.0239 192.385 87.5217 193.209C90.9342 194.024 94.3658 193.707 97.5668 192.297C101.158 190.717 99.2971 192.787 129.86 156.363C160.041 120.395 158.097 122.86 157.521 121.104C157.247 120.285 156.916 119.976 151.89 115.758C146.172 110.96 145.813 110.721 144.466 111.143C142.739 111.648 141.783 113.268 142.17 114.989L142.395 116.015L146.156 119.264L149.882 122.515L123.858 153.53C105.169 175.803 97.5344 184.79 96.808 185.36C93.6644 187.812 89.2475 187.861 86.0016 185.479C82.9167 183.2 81.6595 179.632 82.6157 175.903L83.0597 174.227L110.781 141.005C131.384 116.304 138.555 107.61 138.681 107.127C138.786 106.78 138.788 106.037 138.693 105.522L138.523 104.542L102.991 74.7275C67.6603 45.0813 67.4418 44.8979 66.5352 44.7579C64.7402 44.493 65.9103 43.2094 45.4636 67.5768L26.8966 89.7042L55.7864 114.008C83.3133 137.199 84.6639 138.363 84.8958 139.085C85.0402 139.579 84.9873 139.938 84.7216 140.18C84.456 140.423 81.5762 140.489 75.8113 140.369C71.1118 140.274 67.2126 140.261 67.1209 140.37C67.0262 140.446 67.6247 144.393 68.4427 149.114C69.2454 153.853 69.801 157.888 69.6846 158.101C69.5529 158.332 69.1292 158.504 68.7426 158.521C68.0698 158.546 67.5052 158.072 38.9943 134.242L9.93407 109.919L9.37159 110.627C9.06596 110.991 8.50577 111.917 8.0984 112.662Z" fill="#34E1A2"/>
<path d="M10.2924 89.9087C7.60241 95.0377 8.1062 101.76 11.5484 106.387C12.3696 107.479 17.0377 111.458 48.7809 138.094C88.9016 171.759 86.2179 169.632 89.7157 170.456C93.1282 171.271 96.5598 170.954 99.7608 169.544C103.352 167.964 101.491 170.033 132.054 133.61C162.235 97.6415 160.291 100.107 159.715 98.3513C159.441 97.5316 159.11 97.223 154.084 93.0053C148.366 88.2069 148.007 87.9682 146.66 88.3898C144.933 88.8953 143.977 90.5145 144.364 92.2357L144.589 93.2622L148.35 96.5107L152.076 99.7621L126.052 130.777C107.363 153.05 99.7284 162.037 99.002 162.607C95.8584 165.059 91.4415 165.108 88.1956 162.726C85.1107 160.447 83.8535 156.879 84.8097 153.15L85.2537 151.474L112.975 118.252C133.578 93.5506 140.749 84.857 140.875 84.3735C140.98 84.0268 140.982 83.2841 140.887 82.7694L140.717 81.7886L105.185 51.9744C69.8543 22.3282 69.6358 22.1448 68.7292 22.0048C66.9342 21.7399 68.1043 20.4563 47.6576 44.8237L29.0906 66.9511L57.9804 91.2546C85.5073 114.445 86.8579 115.61 87.0898 116.332C87.2342 116.826 87.1813 117.185 86.9156 117.427C86.65 117.67 83.7702 117.736 78.0053 117.616C73.3058 117.521 69.4066 117.508 69.3149 117.617C69.2202 117.693 69.8187 121.64 70.6367 126.361C71.4394 131.1 71.995 135.135 71.8786 135.348C71.7469 135.579 71.3232 135.751 70.9366 135.768C70.2638 135.793 69.6992 135.319 41.1883 111.489L12.1281 87.1662L11.5656 87.8735C11.26 88.2378 10.6998 89.1643 10.2924 89.9087Z" fill="#F1F1F1"/>
<path d="M12.7268 69.2159C10.0368 74.345 10.5406 81.0677 13.9828 85.694C14.804 86.7865 19.4721 90.7656 51.2153 117.401C91.336 151.067 88.6524 148.939 92.1501 149.763C95.5626 150.579 98.9942 150.262 102.195 148.851C105.786 147.271 103.926 149.341 134.489 112.917C164.67 76.9487 162.725 79.4138 162.15 77.6586C161.876 76.8388 161.545 76.5302 156.518 72.3125C150.8 67.5141 150.442 67.2755 149.095 67.6971C147.367 68.2026 146.412 69.8218 146.799 71.5429L147.024 72.5695L150.784 75.818L154.511 79.0694L128.486 110.084C109.797 132.357 102.163 141.344 101.436 141.914C98.2928 144.366 93.8759 144.415 90.63 142.033C87.5451 139.755 86.2879 136.186 87.2442 132.457L87.6882 130.781L115.41 97.5596C136.013 72.8578 143.183 64.1643 143.31 63.6807C143.414 63.3341 143.417 62.5914 143.321 62.0766L143.151 61.0959L107.62 31.2816C72.2888 1.63544 72.0702 1.45206 71.1636 1.312C69.3686 1.04718 70.5388 -0.236441 50.0921 24.131L31.525 46.2583L60.4148 70.5619C87.9417 93.7527 89.2923 94.9171 89.5242 95.6393C89.6686 96.1329 89.6157 96.4919 89.35 96.7345C89.0844 96.9771 86.2046 97.0434 80.4398 96.9234C75.7402 96.8283 71.841 96.8151 71.7493 96.9244C71.6547 97.0001 72.2531 100.947 73.0711 105.668C73.8739 110.407 74.4294 114.442 74.313 114.655C74.1813 114.886 73.7576 115.058 73.371 115.075C72.6982 115.1 72.1336 114.626 43.6227 90.7958L14.5625 66.4735L14 67.1808C13.6944 67.545 13.1342 68.4715 12.7268 69.2159Z" fill="#4B33E1"/>
</svg>
